<?xml version="1.0" encoding="UTF-8"?>
<svg xmlns="http://www.w3.org/2000/svg" xmlns:xlink="http://www.w3.org/1999/xlink" width="100px" height="100px" viewBox="0 0 100 100" version="1.1">
<g id="surface1">
<path style=" stroke:none;fill-rule:nonzero;fill:rgb(0%,0%,0%);fill-opacity:1;" d="M 43 6.351562 C 40.601562 6.800781 33.699219 10.449219 30.25 13.148438 C 26.148438 16.300781 24.050781 19.449219 22.199219 25.25 C 20.699219 29.898438 20.199219 36.351562 20.851562 42.148438 C 21.25 45.300781 21.199219 46 20.648438 45.75 C 20.300781 45.601562 19.699219 45.351562 19.300781 45.199219 C 17.851562 44.648438 17.148438 46.351562 16.851562 51.351562 C 16.449219 57.25 17.148438 61.5 18.75 63.101562 C 19.351562 63.75 19.949219 64.699219 20.050781 65.199219 C 20.351562 66.800781 21.5 66.699219 22.148438 65.050781 C 22.449219 64.199219 22.898438 63.5 23.050781 63.5 C 23.25 63.5 23.699219 64.800781 24 66.351562 C 25.601562 73.949219 26.898438 76.699219 31.101562 81.300781 C 32.851562 83.199219 34.898438 85.800781 35.648438 87.101562 C 36.398438 88.351562 37.800781 89.898438 38.800781 90.550781 C 40.449219 91.550781 41.199219 91.648438 48.199219 91.648438 C 57.25 91.648438 58.199219 91.300781 60.851562 87.101562 C 61.851562 85.550781 63.949219 82.851562 65.5 81.148438 C 69 77.398438 70.800781 73.949219 71.800781 68.699219 C 72.898438 63.351562 73.199219 62.949219 74.199219 64.949219 C 75.101562 66.648438 76.148438 66.800781 76.398438 65.199219 C 76.5 64.699219 77.050781 63.75 77.601562 63.148438 C 79.199219 61.398438 80.050781 56.898438 79.699219 51.75 C 79.300781 45.5 79.25 45.351562 77.25 45.601562 L 75.550781 45.800781 L 75.851562 39.25 C 76.101562 34 75.949219 31.898438 75.25 28.75 C 74.199219 23.949219 72.949219 20.699219 71.199219 18.050781 C 69.398438 15.25 63.699219 10.898438 58.648438 8.398438 C 54.550781 6.351562 54.148438 6.25 49.300781 6.199219 C 46.550781 6.148438 43.699219 6.199219 43 6.351562 Z M 57.199219 9.898438 C 61.101562 11.699219 65.949219 15.101562 68.351562 17.601562 C 72.601562 22.050781 74.851562 32.550781 73.648438 42.5 C 73.25 46 72.601562 44.601562 72.550781 40.050781 C 72.5 36.5 71.449219 34.25 69 32.5 C 67.648438 31.550781 67.601562 31.300781 67.398438 26.800781 C 67.300781 23 67.050781 21.800781 66.199219 20.648438 C 64.949219 18.949219 61.101562 16.898438 59.75 17.199219 C 59.199219 17.351562 58.300781 17.101562 57.800781 16.75 C 57.148438 16.25 56.648438 16.199219 56.25 16.5 C 55.800781 16.851562 55.449219 16.800781 55 16.25 C 54.300781 15.449219 52.75 15.199219 53.25 16 C 53.699219 16.699219 53.199219 16.601562 51.398438 15.699219 C 50.25 15.101562 49.800781 15.050781 49.5 15.5 C 49.199219 16 48.699219 16 47.199219 15.5 C 45.800781 15 45.25 15 45.101562 15.449219 C 45 15.800781 43.300781 16 40.101562 16 C 31.449219 16 29 18.351562 29 26.648438 L 29 31 L 26.5 33.398438 L 24 35.800781 L 23.949219 39.300781 C 23.898438 41.199219 23.75 43.300781 23.550781 44 C 22.898438 46.101562 22.351562 40.101562 22.601562 34.351562 C 22.898438 28.5 24.699219 22.25 27.050781 19 C 28.648438 16.800781 34.550781 12.25 38 10.449219 C 42.050781 8.398438 44.050781 8 49 8.148438 C 53.148438 8.25 54.199219 8.5 57.199219 9.898438 Z M 49.949219 17.75 C 50.300781 17.898438 50.851562 17.851562 51.199219 17.550781 C 51.648438 17.148438 52.101562 17.199219 52.800781 17.699219 C 53.449219 18.199219 53.949219 18.25 54.351562 17.898438 C 54.800781 17.550781 55.199219 17.550781 55.699219 17.949219 C 56.101562 18.25 56.601562 18.5 56.800781 18.449219 C 57.050781 18.398438 57.648438 18.5 58.148438 18.75 C 58.648438 18.949219 59.300781 18.851562 59.75 18.5 C 60.800781 17.648438 63.898438 19.300781 65.351562 21.449219 C 66.351562 22.898438 66.5 23.800781 66.5 27.5 L 66.5 31.898438 L 68.25 33.199219 C 70.550781 35 71.5 36.898438 71.5 39.898438 C 71.5 41.300781 71.949219 44.699219 72.550781 47.550781 C 73.75 53.5 73.648438 55.050781 71.898438 61.25 C 71.148438 63.699219 70.25 67.300781 69.800781 69.25 C 68.648438 74.101562 67.25 76.699219 64.199219 79.699219 C 62.75 81.148438 60.75 83.75 59.75 85.449219 C 58.449219 87.648438 57.398438 88.800781 56.300781 89.25 C 54.25 90.050781 41.75 89.949219 40.101562 89.050781 C 39.449219 88.699219 38.148438 87.148438 37.148438 85.601562 C 36.148438 84.050781 34.050781 81.351562 32.398438 79.648438 C 29 76.050781 27.800781 73.699219 26.5 67.648438 C 25.949219 65.199219 24.949219 61.601562 24.25 59.550781 C 22.699219 54.949219 22.699219 54.449219 24.25 46.75 C 24.898438 43.351562 25.351562 39.851562 25.199219 39.101562 C 24.800781 37.199219 26.101562 34.800781 28.199219 33.398438 C 30.101562 32.148438 30.648438 30.300781 30.199219 26.800781 C 30 25.648438 30.148438 23.800781 30.449219 22.648438 C 31.699219 17.949219 34.050781 16.949219 43.050781 17.199219 C 46.550781 17.300781 49.648438 17.550781 49.949219 17.75 Z M 21.351562 48.101562 C 21.75 48.550781 21.75 49.550781 21.351562 51.398438 C 20.800781 54.050781 21 55.300781 22.851562 61.601562 C 23.050781 62.25 22.851562 62.5 22.050781 62.5 C 21.449219 62.5 21 62.199219 21 61.75 C 21 60.851562 20.148438 60.75 19.851562 61.601562 C 19.75 61.949219 19.351562 61.25 18.949219 60 C 18.300781 57.851562 18.199219 47.898438 18.800781 46.949219 C 19.101562 46.449219 20.550781 47.101562 21.351562 48.101562 Z M 78.300781 48.300781 C 79.101562 51.449219 77.550781 64 76.648438 61.601562 C 76.5 61.300781 76.199219 61 75.898438 61 C 75.601562 61 75.5 61.351562 75.699219 61.75 C 75.898438 62.25 75.648438 62.5 74.949219 62.5 C 73.75 62.5 73.75 62.449219 75.300781 57.351562 C 76.050781 54.851562 76.101562 54 75.601562 51.601562 C 75.101562 49.199219 75.101562 48.699219 75.851562 47.898438 C 77 46.648438 77.949219 46.800781 78.300781 48.300781 Z M 78.300781 48.300781 "/>
<path style=" stroke:none;fill-rule:nonzero;fill:rgb(0%,0%,0%);fill-opacity:1;" d="M 30.300781 39 C 27.398438 39.898438 26.300781 41.800781 27.699219 43.601562 C 28.601562 44.800781 28.851562 44.75 28.800781 43.398438 C 28.75 42.648438 29.199219 42.050781 30.148438 41.601562 C 31.351562 41 32.050781 41 34.898438 41.699219 C 36.75 42.101562 39.050781 42.550781 40.050781 42.75 C 41.050781 42.898438 42.25 43.449219 42.75 44 C 43.851562 45.25 44.5 44.550781 44.5 42.148438 C 44.5 40.351562 43.300781 39.398438 41.601562 39.800781 C 41.050781 39.949219 39 39.75 37.050781 39.300781 C 33.199219 38.398438 32.398438 38.398438 30.300781 39 Z M 30.300781 39 "/>
<path style=" stroke:none;fill-rule:nonzero;fill:rgb(0%,0%,0%);fill-opacity:1;" d="M 60 39 C 59.300781 39.199219 57.550781 39.398438 56.148438 39.449219 C 53.949219 39.5 53.398438 39.699219 52.75 40.699219 C 52.351562 41.351562 52.101562 42.25 52.25 42.699219 C 53.101562 45.398438 53 45.351562 54 44 C 54.75 43 55.699219 42.601562 58.601562 42.148438 C 60.601562 41.800781 63.101562 41.351562 64.101562 41.199219 C 66.300781 40.800781 68.648438 42 68.199219 43.25 C 67.75 44.398438 68.898438 44.148438 69.5 42.949219 C 70.25 41.550781 69.851562 40.699219 67.898438 39.5 C 66.148438 38.449219 62.449219 38.199219 60 39 Z M 60 39 "/>
<path style=" stroke:none;fill-rule:nonzero;fill:rgb(0%,0%,0%);fill-opacity:1;" d="M 33.949219 44.449219 C 31.75 45.148438 30.5 46 30.5 46.800781 C 30.5 47.300781 30.75 47.5 31.25 47.300781 C 31.648438 47.148438 32.300781 46.851562 32.699219 46.699219 C 33.148438 46.550781 33.550781 46.851562 33.75 47.5 C 34.050781 48.398438 34.398438 48.550781 36.148438 48.398438 C 37.800781 48.300781 38.25 48.050781 38.5 47.148438 C 38.699219 46.300781 38.949219 46.148438 39.5 46.5 C 40.601562 47.199219 41.5 47.101562 41.5 46.25 C 41.5 44.898438 36.398438 43.699219 33.949219 44.449219 Z M 33.949219 44.449219 "/>
<path style=" stroke:none;fill-rule:nonzero;fill:rgb(0%,0%,0%);fill-opacity:1;" d="M 59.25 44.351562 C 57.050781 44.800781 55.5 45.648438 55.5 46.351562 C 55.5 46.75 55.800781 47 56.148438 46.851562 C 58.351562 46.050781 59 45.949219 58.75 46.601562 C 58.300781 47.851562 59.300781 48.550781 61.300781 48.398438 C 62.898438 48.300781 63.300781 48.050781 63.398438 47.101562 C 63.550781 46 63.648438 46 64.75 46.699219 C 65.550781 47.199219 66.050781 47.300781 66.25 46.949219 C 67.300781 45.351562 62.648438 43.601562 59.25 44.351562 Z M 59.25 44.351562 "/>
<path style=" stroke:none;fill-rule:nonzero;fill:rgb(0%,0%,0%);fill-opacity:1;" d="M 44 60.550781 C 44 61.351562 46.601562 62.5 48.351562 62.5 C 50.148438 62.5 52.5 61.398438 52.5 60.550781 C 52.5 60.351562 50.601562 60.199219 48.25 60.199219 C 45.898438 60.199219 44 60.351562 44 60.550781 Z M 44 60.550781 "/>
<path style=" stroke:none;fill-rule:nonzero;fill:rgb(0%,0%,0%);fill-opacity:1;" d="M 42.851562 69.800781 C 40.148438 71.851562 40.101562 72.351562 42.699219 71.5 C 43.949219 71.101562 45 71.101562 46.351562 71.449219 C 47.648438 71.800781 48.800781 71.800781 50.148438 71.449219 C 51.5 71.101562 52.550781 71.101562 53.601562 71.449219 C 56.550781 72.5 56.648438 72 53.949219 69.949219 C 52 68.5 50.949219 68.050781 50.25 68.300781 C 49 68.699219 47.550781 68.699219 46.25 68.300781 C 45.550781 68.101562 44.5 68.550781 42.851562 69.800781 Z M 42.851562 69.800781 "/>
<path style=" stroke:none;fill-rule:nonzero;fill:rgb(0%,0%,0%);fill-opacity:1;" d="M 45.101562 76.101562 C 45.351562 76.800781 49 77.25 50.851562 76.75 C 53 76.25 51.5 75.5 48.199219 75.5 C 45.800781 75.5 44.949219 75.648438 45.101562 76.101562 Z M 45.101562 76.101562 "/>
<path style=" stroke:none;fill-rule:nonzero;fill:rgb(0%,0%,0%);fill-opacity:1;" d="M 47.601562 85.601562 C 47.699219 86.25 48 86.75 48.25 86.75 C 48.550781 86.75 48.800781 86.25 48.898438 85.601562 C 49 84.851562 48.800781 84.5 48.25 84.5 C 47.699219 84.5 47.5 84.851562 47.601562 85.601562 Z M 47.601562 85.601562 "/>
</g>
</svg>
